<svg xmlns="http://www.w3.org/2000/svg" width="48" height="48" viewBox="0 0 48 48"><path fill="#d8c2ab" d="M16.7 1.5a2.6 2.6 0 0 1-2.6 2.6 2.6 2.6 0 0 1-2.5-2.6A2.5 2.5 0 0 1 14.1-1a2.6 2.6 0 0 1 2.6 2.5zm7.5-.8c-.2.3-4.4 7.1-10.1 7.1S4.2 1 4 .7a4.6 4.6 0 0 1 0-3.5c.7-1.6 2.2-2.9 4.6-3.9a14 14 0 0 1 5.5-1.2 14 14 0 0 1 5.5 1.2c2.4 1 3.9 2.3 4.6 3.9a4.6 4.6 0 0 1 0 3.5zm-2.6 1.2L20 1.1l-.8.2a1.9 1.9 0 0 1-1.9-1.9 1.9 1.9 0 0 1 1.9-1.8A1.8 1.8 0 0 1 21-.7l1.9.9h.1a3.3 3.3 0 0 0-.1-2.4 6.5 6.5 0 0 0-3.8-3.1 11.6 11.6 0 0 0-5-1.1 11.9 11.9 0 0 0-5 1.1 6.5 6.5 0 0 0-3.8 3A5 5 0 0 0 5.2.1h.2l1.8-.8A1.8 1.8 0 0 1 9-2.4a1.8 1.8 0 0 1 1.9 1.8A1.8 1.8 0 0 1 9 1.3l-.8-.2-1.6.8c1.6 1.9 4.4 4.5 7.5 4.5s5.9-2.6 7.5-4.5zm-4.9 47.8a2.6 2.6 0 0 1-2.6 2.5 2.5 2.5 0 0 1-2.5-2.5 2.6 2.6 0 0 1 2.5-2.6 2.6 2.6 0 0 1 2.6 2.6zm7.5-.9c-.2.3-4.4 7-10.1 7S4.2 49.2 4 48.9a4.3 4.3 0 0 1 0-3.4c.7-1.7 2.2-3 4.6-3.9a13.9 13.9 0 0 1 5.5-1.3 13.9 13.9 0 0 1 5.5 1.3c2.4.9 3.9 2.2 4.6 3.9a4.3 4.3 0 0 1 0 3.3zm-2.6 1.3l-1.6-.8h-.8a1.9 1.9 0 0 1-1.9-1.8 2 2 0 0 1 1.9-1.9 1.8 1.8 0 0 1 1.8 1.8l1.9 1a.3.3 0 0 1 .1-.2 3 3 0 0 0-.1-2.3 6.5 6.5 0 0 0-3.8-3.1 13.1 13.1 0 0 0-5-1.2 13.6 13.6 0 0 0-5 1.2 6.5 6.5 0 0 0-3.8 3.1 4.5 4.5 0 0 0-.1 2.3l.2.2 1.8-1A1.9 1.9 0 0 1 9 45.7a1.9 1.9 0 0 1 1.9 1.9A1.8 1.8 0 0 1 9 49.4h-.8l-1.6.8c1.6 1.9 4.4 4.5 7.5 4.5s5.9-2.7 7.5-4.6zm14.8-24.5a2.6 2.6 0 0 1-2.5 2.6 2.6 2.6 0 0 1 0-5.2 2.6 2.6 0 0 1 2.5 2.6zm7.6-.9c-.2.3-4.4 7.1-10.1 7.1s-9.9-6.7-10.1-7a4.3 4.3 0 0 1 0-3.4c.7-1.7 2.2-3 4.6-3.9a15.9 15.9 0 0 1 5.5-1.3 15.9 15.9 0 0 1 5.5 1.3c2.4.9 3.9 2.2 4.6 3.9a4.3 4.3 0 0 1 0 3.3zM41.4 26l-1.6-.8-.8.2a1.9 1.9 0 0 1-1.9-1.9 1.9 1.9 0 0 1 3.7-.2l1.8 1 .2-.2a4.5 4.5 0 0 0-.1-2.3 6.5 6.5 0 0 0-3.8-3.1 13.6 13.6 0 0 0-5-1.2 13.6 13.6 0 0 0-5 1.2 6.5 6.5 0 0 0-3.8 3.1 3 3 0 0 0-.1 2.3c0 .1.1.1.1.2l1.9-1a1.8 1.8 0 0 1 1.8-1.6 1.9 1.9 0 0 1 1.9 1.8 2 2 0 0 1-1.9 1.9l-.8-.2-1.6.8c1.6 1.9 4.3 4.5 7.5 4.5s5.9-2.6 7.5-4.5z"/></svg>